<svg width="89" height="20" viewBox="0 0 89 20" fill="none" xmlns="http://www.w3.org/2000/svg">
<path d="M12.7699 15.64H10.2718L8.90338 11.3401H4.14698L2.84348 15.64H0.411377L5.12378 1.00122H8.03438L12.7699 15.64ZM8.49088 9.53612L7.25338 5.71362C7.12248 5.32312 6.87718 4.40352 6.51528 2.95592H6.47128C6.32718 3.57852 6.09508 4.49812 5.77608 5.71362L4.56058 9.53612H8.49088Z" fill="white"/>
<path d="M24.8886 10.2324C24.8886 12.0276 24.4034 13.4466 23.4332 14.4883C22.5642 15.4156 21.4851 15.8787 20.197 15.8787C18.8066 15.8787 17.8078 15.3793 17.1995 14.3805H17.1555V19.941H14.8103V8.55927C14.8103 7.43067 14.7806 6.27238 14.7234 5.08438H16.7859L16.9168 6.75748H16.9609C17.743 5.49688 18.9298 4.86768 20.5226 4.86768C21.7678 4.86768 22.8073 5.35937 23.6389 6.34387C24.4727 7.32947 24.8886 8.62527 24.8886 10.2324ZM22.4994 10.3182C22.4994 9.29078 22.2684 8.44378 21.8042 7.77718C21.297 7.08198 20.6161 6.73438 19.7625 6.73438C19.1839 6.73438 18.6581 6.92798 18.1884 7.30967C17.7176 7.69467 17.4096 8.19738 17.2655 8.81998C17.1929 9.11038 17.1566 9.34798 17.1566 9.53498V11.295C17.1566 12.0628 17.392 12.7107 17.8628 13.2398C18.3336 13.7689 18.9452 14.0329 19.6976 14.0329C20.5809 14.0329 21.2684 13.6919 21.7601 13.0121C22.2529 12.3312 22.4994 11.4336 22.4994 10.3182Z" fill="white"/>
<path d="M37.0292 10.2324C37.0292 12.0276 36.5441 13.4466 35.5728 14.4883C34.7049 15.4156 33.6258 15.8787 32.3377 15.8787C30.9473 15.8787 29.9485 15.3793 29.3413 14.3805H29.2973V19.941H26.9521V8.55927C26.9521 7.43067 26.9224 6.27238 26.8652 5.08438H28.9277L29.0586 6.75748H29.1026C29.8836 5.49688 31.0705 4.86768 32.6644 4.86768C33.9085 4.86768 34.948 5.35937 35.7818 6.34387C36.6123 7.32947 37.0292 8.62527 37.0292 10.2324ZM34.64 10.3182C34.64 9.29078 34.4079 8.44378 33.9437 7.77718C33.4366 7.08198 32.7579 6.73438 31.9032 6.73438C31.3235 6.73438 30.7988 6.92798 30.328 7.30967C29.8572 7.69467 29.5503 8.19738 29.4062 8.81998C29.3347 9.11038 29.2973 9.34798 29.2973 9.53498V11.295C29.2973 12.0628 29.5327 12.7107 30.0013 13.2398C30.4721 13.7678 31.0837 14.0329 31.8383 14.0329C32.7216 14.0329 33.4091 13.6919 33.9008 13.0121C34.3936 12.3312 34.64 11.4336 34.64 10.3182Z" fill="white"/>
<path d="M50.6032 11.5347C50.6032 12.7799 50.1709 13.793 49.303 14.5751C48.3493 15.4298 47.0216 15.8566 45.3155 15.8566C43.7403 15.8566 42.4775 15.553 41.5216 14.9447L42.065 12.99C43.0946 13.6126 44.2243 13.925 45.4552 13.925C46.3385 13.925 47.026 13.7248 47.5199 13.3266C48.0116 12.9284 48.2569 12.3938 48.2569 11.7272C48.2569 11.1332 48.0545 10.6327 47.6486 10.2268C47.2449 9.82092 46.5706 9.44362 45.629 9.09492C43.066 8.13902 41.7856 6.73872 41.7856 4.89732C41.7856 3.69392 42.2344 2.70722 43.1331 1.93942C44.0285 1.17052 45.2231 0.786621 46.7169 0.786621C48.049 0.786621 49.1556 1.01872 50.0389 1.48182L49.4526 3.39362C48.6276 2.94482 47.6948 2.72042 46.6509 2.72042C45.8259 2.72042 45.1813 2.92392 44.7193 3.32872C44.3288 3.69062 44.133 4.13172 44.133 4.65422C44.133 5.23282 44.3563 5.71132 44.8051 6.08752C45.1956 6.43512 45.9051 6.81132 46.9347 7.21722C48.1942 7.72432 49.1193 8.31722 49.7144 8.99702C50.3073 9.67462 50.6032 10.5227 50.6032 11.5347Z" fill="white"/>
<path d="M58.3571 6.84444H55.7721V11.9693C55.7721 13.2728 56.2275 13.924 57.1405 13.924C57.5596 13.924 57.9072 13.8877 58.1822 13.8151L58.2471 15.596C57.7851 15.7687 57.1768 15.8556 56.4233 15.8556C55.4971 15.8556 54.7733 15.5729 54.2508 15.0086C53.7305 14.4432 53.4687 13.495 53.4687 12.1629V6.84225H51.9287V5.08225H53.4687V3.14955L55.7721 2.45435V5.08225H58.3571V6.84444Z" fill="white"/>
<path d="M70.0205 10.2754C70.0205 11.8979 69.5563 13.23 68.6301 14.2717C67.6588 15.3442 66.3696 15.8788 64.7625 15.8788C63.2137 15.8788 61.9806 15.3651 61.061 14.3377C60.1414 13.3103 59.6816 12.0134 59.6816 10.4503C59.6816 8.8146 60.1546 7.4748 61.1039 6.4331C62.051 5.3903 63.3292 4.8689 64.9363 4.8689C66.4851 4.8689 67.7314 5.3826 68.6719 6.4111C69.5717 7.4088 70.0205 8.6969 70.0205 10.2754ZM67.5873 10.3513C67.5873 9.3778 67.3794 8.5429 66.9581 7.8466C66.4664 7.004 65.7635 6.5838 64.8527 6.5838C63.91 6.5838 63.1939 7.0051 62.7022 7.8466C62.2809 8.544 62.073 9.3921 62.073 10.3953C62.073 11.3688 62.2809 12.2037 62.7022 12.8989C63.2093 13.7415 63.9177 14.1617 64.8318 14.1617C65.7272 14.1617 66.4301 13.7327 66.9372 12.8769C67.3695 12.1674 67.5873 11.3237 67.5873 10.3513Z" fill="white"/>
<path d="M77.6434 7.14688C77.4113 7.10398 77.1638 7.08198 76.9042 7.08198C76.0792 7.08198 75.4412 7.39327 74.9924 8.01697C74.6019 8.56697 74.4061 9.26217 74.4061 10.1015V15.64H72.062L72.084 8.40858C72.084 7.19198 72.0543 6.08428 71.996 5.08548H74.0387L74.1245 7.10508H74.1894C74.4369 6.41098 74.8274 5.85218 75.362 5.43308C75.8845 5.05578 76.4488 4.86768 77.0571 4.86768C77.2738 4.86768 77.4696 4.88308 77.6434 4.91058V7.14688Z" fill="white"/>
<path d="M88.132 9.8628C88.132 10.283 88.1045 10.6372 88.0462 10.9265H81.0106C81.0381 11.9693 81.378 12.7668 82.0314 13.3168C82.6243 13.8085 83.391 14.0549 84.3326 14.0549C85.3743 14.0549 86.3247 13.8888 87.1794 13.5555L87.5468 15.1835C86.548 15.6191 85.3688 15.8358 84.0081 15.8358C82.3713 15.8358 81.0865 15.354 80.1515 14.3915C79.2187 13.429 78.7512 12.1365 78.7512 10.5151C78.7512 8.9234 79.1857 7.5979 80.0558 6.5408C80.9666 5.4122 82.1975 4.8479 83.7463 4.8479C85.2676 4.8479 86.4193 5.4122 87.2014 6.5408C87.8207 7.4373 88.132 8.5461 88.132 9.8628ZM85.8957 9.2545C85.9111 8.5593 85.7582 7.9587 85.4403 7.4516C85.0344 6.7993 84.4107 6.4737 83.5714 6.4737C82.8047 6.4737 82.181 6.7916 81.7047 7.4296C81.3142 7.9367 81.0821 8.545 81.0106 9.2534H85.8957V9.2545Z" fill="white"/>
</svg>
