<svg width="24" height="29" viewBox="0 0 24 29" fill="none" xmlns="http://www.w3.org/2000/svg">
<path d="M19.9012 15.7479C19.8693 12.2026 22.8041 10.4778 22.9383 10.3975C21.2762 7.97422 18.7 7.64312 17.7947 7.61672C15.631 7.38902 13.5322 8.91142 12.43 8.91142C11.3058 8.91142 9.60855 7.63872 7.77925 7.67612C5.42525 7.71242 3.22305 9.07532 2.01525 11.1917C-0.477352 15.507 1.38165 21.8485 3.76975 25.3366C4.96435 27.0449 6.36025 28.9523 8.18735 28.8852C9.97485 28.8115 10.6425 27.7456 12.7996 27.7456C14.9369 27.7456 15.5639 28.8852 17.4273 28.8423C19.3457 28.8115 20.5535 27.1263 21.7063 25.4026C23.0868 23.4446 23.6412 21.5163 23.6632 21.4173C23.6181 21.4019 19.9375 19.9972 19.9012 15.7479Z" fill="white"/>
<path d="M16.3812 5.32212C17.3426 4.11982 18.0004 2.48412 17.8178 0.824219C16.4263 0.885819 14.6861 1.78672 13.684 2.96262C12.7974 3.99882 12.0054 5.69722 12.21 7.29442C13.7731 7.41102 15.378 6.50572 16.3812 5.32212Z" fill="white"/>
</svg>
