<svg width="87" height="8" viewBox="0 0 87 8" fill="none" xmlns="http://www.w3.org/2000/svg">
<path d="M6.71536 3.99566C6.71536 5.29036 6.32706 6.26496 5.55156 6.91946C4.83326 7.52336 3.81246 7.82586 2.49026 7.82586C1.83466 7.82586 1.27366 7.79726 0.803955 7.74006V0.665957C1.41666 0.566957 2.07666 0.516357 2.78946 0.516357C4.04896 0.516357 4.99826 0.790257 5.63846 1.33806C6.35566 1.95736 6.71536 2.84286 6.71536 3.99566ZM5.49986 4.02756C5.49986 3.18826 5.27766 2.54476 4.83326 2.09596C4.38886 1.64826 3.73986 1.42386 2.88516 1.42386C2.52216 1.42386 2.21306 1.44806 1.95676 1.49866V6.87656C2.09866 6.89856 2.35826 6.90846 2.73556 6.90846C3.61776 6.90846 4.29866 6.66316 4.77826 6.17256C5.25786 5.68196 5.49986 4.96696 5.49986 4.02756Z" fill="white"/>
<path d="M13.1602 5.12635C13.1602 5.92385 12.9325 6.57725 12.4771 7.08985C11.9997 7.61675 11.3672 7.87965 10.5774 7.87965C9.81624 7.87965 9.21014 7.62775 8.75804 7.12175C8.30704 6.61685 8.08154 5.97995 8.08154 5.21215C8.08154 4.40915 8.31364 3.75025 8.78004 3.23875C9.24644 2.72725 9.87344 2.47095 10.6632 2.47095C11.4244 2.47095 12.036 2.72285 12.4991 3.22775C12.9391 3.71835 13.1602 4.35195 13.1602 5.12635ZM11.9645 5.16375C11.9645 4.68525 11.8611 4.27495 11.6554 3.93285C11.4134 3.51925 11.0691 3.31245 10.6214 3.31245C10.1583 3.31245 9.80634 3.51925 9.56434 3.93285C9.35754 4.27495 9.25524 4.69185 9.25524 5.18465C9.25524 5.66315 9.35864 6.07345 9.56434 6.41555C9.81404 6.82915 10.1616 7.03595 10.6104 7.03595C11.0504 7.03595 11.3958 6.82585 11.6444 6.40455C11.8578 6.05585 11.9645 5.64225 11.9645 5.16375Z" fill="white"/>
<path d="M21.8019 2.57642L20.1794 7.76182H19.1234L18.4513 5.51012C18.2808 4.94802 18.1422 4.38922 18.0344 3.83482H18.0135C17.9134 4.40462 17.7748 4.96232 17.5966 5.51012L16.8827 7.76182H15.8146L14.2889 2.57642H15.4736L16.0599 5.04152C16.2018 5.62452 16.3184 6.18002 16.4119 6.70582H16.4328C16.5186 6.27242 16.6605 5.72022 16.8607 5.05252L17.5966 2.57752H18.536L19.2411 4.99972C19.4116 5.59042 19.5502 6.15912 19.6569 6.70692H19.6888C19.7669 6.17342 19.8846 5.60472 20.0408 4.99972L20.67 2.57752H21.8019V2.57642Z" fill="white"/>
<path d="M27.7782 7.76183H26.6254V4.79183C26.6254 3.87663 26.2778 3.41903 25.5804 3.41903C25.2383 3.41903 24.9622 3.54443 24.7477 3.79633C24.5354 4.04823 24.4276 4.34523 24.4276 4.68513V7.76073H23.2748V4.05813C23.2748 3.60273 23.2605 3.10883 23.233 2.57423H24.2461L24.3 3.38493H24.3319C24.4661 3.13303 24.6663 2.92513 24.9292 2.75903C25.2416 2.56543 25.5914 2.46753 25.9742 2.46753C26.4582 2.46753 26.8608 2.62373 27.1809 2.93723C27.5791 3.32113 27.7782 3.89423 27.7782 4.65543V7.76183Z" fill="white"/>
<path d="M30.9571 7.76197H29.8054V0.197266H30.9571V7.76197Z" fill="white"/>
<path d="M37.7442 5.12635C37.7442 5.92385 37.5165 6.57725 37.0611 7.08985C36.5837 7.61675 35.9501 7.87965 35.1614 7.87965C34.3991 7.87965 33.793 7.62775 33.342 7.12175C32.891 6.61685 32.6655 5.97995 32.6655 5.21215C32.6655 4.40915 32.8976 3.75025 33.364 3.23875C33.8304 2.72725 34.4574 2.47095 35.2461 2.47095C36.0084 2.47095 36.6189 2.72285 37.0831 3.22775C37.5231 3.71835 37.7442 4.35195 37.7442 5.12635ZM36.5474 5.16375C36.5474 4.68525 36.444 4.27495 36.2383 3.93285C35.9974 3.51925 35.652 3.31245 35.2054 3.31245C34.7412 3.31245 34.3892 3.51925 34.1483 3.93285C33.9415 4.27495 33.8392 4.69185 33.8392 5.18465C33.8392 5.66315 33.9426 6.07345 34.1483 6.41555C34.398 6.82915 34.7456 7.03595 35.1944 7.03595C35.6344 7.03595 35.9787 6.82585 36.2273 6.40455C36.4418 6.05585 36.5474 5.64225 36.5474 5.16375Z" fill="white"/>
<path d="M43.3233 7.76195H42.2882L42.2024 7.16465H42.1705C41.8163 7.64095 41.3114 7.87965 40.6558 7.87965C40.1663 7.87965 39.7703 7.72235 39.4722 7.40995C39.2016 7.12615 39.0663 6.77305 39.0663 6.35395C39.0663 5.72035 39.3303 5.23745 39.8616 4.90305C40.3918 4.56865 41.1376 4.40475 42.0979 4.41245V4.31565C42.0979 3.63255 41.7393 3.29155 41.021 3.29155C40.5095 3.29155 40.0585 3.42025 39.6691 3.67545L39.4348 2.91865C39.9166 2.62055 40.5117 2.47095 41.2135 2.47095C42.5687 2.47095 43.2485 3.18595 43.2485 4.61595V6.52555C43.2485 7.04365 43.2738 7.45615 43.3233 7.76195ZM42.1265 5.97995V5.18025C40.8549 5.15825 40.2191 5.50695 40.2191 6.22525C40.2191 6.49585 40.2917 6.69825 40.4402 6.83355C40.5887 6.96885 40.7779 7.03595 41.0034 7.03595C41.2564 7.03595 41.4929 6.95565 41.7085 6.79615C41.9252 6.63555 42.0583 6.43205 42.1078 6.18235C42.1199 6.12625 42.1265 6.05805 42.1265 5.97995Z" fill="white"/>
<path d="M49.8738 7.76197H48.8508L48.7969 6.92927H48.765C48.4383 7.56287 47.8817 7.87967 47.0996 7.87967C46.4748 7.87967 45.9545 7.63437 45.542 7.14377C45.1295 6.65317 44.9238 6.01627 44.9238 5.23417C44.9238 4.39487 45.1471 3.71507 45.5959 3.19586C46.0304 2.71186 46.5628 2.46987 47.1964 2.46987C47.8927 2.46987 48.38 2.70417 48.6572 3.17387H48.6792V0.197266H49.8331V6.36497C49.8331 6.86987 49.8463 7.33517 49.8738 7.76197ZM48.6792 5.57517V4.71057C48.6792 4.56097 48.6682 4.43997 48.6473 4.34757C48.5824 4.07037 48.4427 3.83717 48.2304 3.64907C48.0159 3.46097 47.7574 3.36637 47.4593 3.36637C47.0292 3.36637 46.6926 3.53687 46.4451 3.87897C46.1998 4.22107 46.0755 4.65776 46.0755 5.19127C46.0755 5.70387 46.1932 6.11967 46.4297 6.43977C46.6794 6.78077 47.016 6.95127 47.4373 6.95127C47.8157 6.95127 48.1182 6.80937 48.3481 6.52447C48.5703 6.26157 48.6792 5.94477 48.6792 5.57517Z" fill="white"/>
<path d="M59.7332 5.12635C59.7332 5.92385 59.5055 6.57725 59.0501 7.08985C58.5727 7.61675 57.9413 7.87965 57.1504 7.87965C56.3903 7.87965 55.7842 7.62775 55.331 7.12175C54.88 6.61685 54.6545 5.97995 54.6545 5.21215C54.6545 4.40915 54.8866 3.75025 55.353 3.23875C55.8194 2.72725 56.4464 2.47095 57.2373 2.47095C57.9974 2.47095 58.6101 2.72285 59.0721 3.22775C59.5121 3.71835 59.7332 4.35195 59.7332 5.12635ZM58.5386 5.16375C58.5386 4.68525 58.4352 4.27495 58.2295 3.93285C57.9864 3.51925 57.6432 3.31245 57.1944 3.31245C56.7324 3.31245 56.3804 3.51925 56.1373 3.93285C55.9305 4.27495 55.8282 4.69185 55.8282 5.18465C55.8282 5.66315 55.9316 6.07345 56.1373 6.41555C56.387 6.82915 56.7346 7.03595 57.1834 7.03595C57.6234 7.03595 57.9699 6.82585 58.2185 6.40455C58.4308 6.05585 58.5386 5.64225 58.5386 5.16375Z" fill="white"/>
<path d="M65.9316 7.76183H64.7799V4.79183C64.7799 3.87663 64.4323 3.41903 63.7338 3.41903C63.3917 3.41903 63.1156 3.54443 62.9022 3.79633C62.6888 4.04823 62.5821 4.34523 62.5821 4.68513V7.76073H61.4282V4.05813C61.4282 3.60273 61.415 3.10883 61.3875 2.57423H62.3995L62.4534 3.38493H62.4853C62.6206 3.13303 62.8208 2.92513 63.0826 2.75903C63.3961 2.56543 63.7448 2.46753 64.1287 2.46753C64.6116 2.46753 65.0142 2.62373 65.3343 2.93723C65.7336 3.32113 65.9316 3.89423 65.9316 4.65543V7.76183Z" fill="white"/>
<path d="M73.6899 3.44006H72.4205V5.95906C72.4205 6.59926 72.646 6.91936 73.0926 6.91936C73.2994 6.91936 73.471 6.90176 73.6063 6.86546L73.636 7.73996C73.4083 7.82576 73.1091 7.86866 72.7406 7.86866C72.2852 7.86866 71.931 7.73006 71.6747 7.45286C71.4173 7.17566 71.2897 6.70926 71.2897 6.05476V3.44006H70.5318V2.57656H71.2897V1.62616L72.4194 1.28516V2.57546H73.6888V3.44006H73.6899Z" fill="white"/>
<path d="M79.7927 7.76197H78.6388V4.81397C78.6388 3.88447 78.2912 3.41917 77.5949 3.41917C77.0603 3.41917 76.6951 3.68867 76.4949 4.22767C76.4608 4.34097 76.441 4.47957 76.441 4.64237V7.76087H75.2893V0.197266H76.441V3.32237H76.463C76.826 2.75367 77.3463 2.46987 78.0206 2.46987C78.498 2.46987 78.8929 2.62607 79.2064 2.93957C79.5969 3.33007 79.7927 3.91087 79.7927 4.67867V7.76197Z" fill="white"/>
<path d="M86.088 4.92384C86.088 5.13064 86.0726 5.30444 86.0451 5.44634H82.5878C82.6032 5.95894 82.7682 6.34944 83.0883 6.62004C83.3809 6.86204 83.7582 6.98304 84.2202 6.98304C84.7317 6.98304 85.1981 6.90164 85.6183 6.73774L85.7987 7.53854C85.307 7.75194 84.7284 7.85864 84.0585 7.85864C83.2555 7.85864 82.623 7.62214 82.1654 7.14914C81.7056 6.67614 81.4779 6.04144 81.4779 5.24504C81.4779 4.46294 81.6902 3.81174 82.1181 3.29254C82.5647 2.73814 83.1686 2.46094 83.9309 2.46094C84.6767 2.46094 85.2432 2.73814 85.626 3.29254C85.9351 3.73254 86.088 4.27704 86.088 4.92384ZM84.988 4.62574C84.9968 4.28364 84.9209 3.98884 84.7647 3.74024C84.5645 3.42014 84.2598 3.25954 83.8473 3.25954C83.4711 3.25954 83.1642 3.41574 82.9299 3.72924C82.7385 3.97894 82.6252 4.27704 82.5878 4.62574H84.988Z" fill="white"/>
</svg>
