<svg width="59" height="89" viewBox="0 0 59 89" fill="none" xmlns="http://www.w3.org/2000/svg">
<path d="M21.7607 63.9998C21.7607 64.0465 21.7783 64.0915 21.81 64.1259C21.8416 64.1603 21.885 64.1815 21.9316 64.1854L21.9244 64.404C21.9031 64.404 21.8816 64.404 21.8601 64.404C21.5929 64.4038 21.3276 64.4502 21.0763 64.5411L21.0091 64.3586C21.0515 64.3403 21.0856 64.3069 21.1049 64.2649C21.1241 64.223 21.1271 64.1753 21.1132 64.1313C21.0994 64.0872 21.0696 64.0499 21.0298 64.0264C20.99 64.003 20.9429 63.9952 20.8977 64.0045C20.8525 64.0138 20.8123 64.0395 20.7849 64.0767C20.7576 64.114 20.745 64.16 20.7496 64.206C20.7543 64.2519 20.7758 64.2945 20.81 64.3255C20.8442 64.3565 20.8888 64.3737 20.9349 64.3738C20.9535 64.3738 20.9719 64.3711 20.9896 64.3657L21.0568 64.5483C20.7751 64.6535 20.5169 64.8134 20.2971 65.0186L20.1627 64.8757C20.1962 64.8406 20.2146 64.7938 20.214 64.7454C20.2135 64.6969 20.1941 64.6505 20.1599 64.6162C20.1258 64.5818 20.0795 64.5621 20.0311 64.5613C19.9826 64.5605 19.9358 64.5786 19.9005 64.6118C19.8651 64.645 19.8442 64.6906 19.842 64.7391C19.8399 64.7875 19.8567 64.8348 19.8889 64.871C19.9211 64.9073 19.9662 64.9295 20.0145 64.933C20.0628 64.9365 20.1106 64.921 20.1477 64.8898L20.2821 65.0327C20.2667 65.0475 20.2512 65.0622 20.236 65.0775C20.023 65.2898 19.8537 65.5419 19.7379 65.8194L19.5466 65.7408C19.5613 65.6946 19.5573 65.6444 19.5355 65.6011C19.5138 65.5577 19.476 65.5245 19.4302 65.5086C19.3843 65.4927 19.3341 65.4952 19.2901 65.5158C19.2462 65.5363 19.212 65.5732 19.1948 65.6185C19.1776 65.6639 19.1787 65.7142 19.198 65.7587C19.2173 65.8032 19.2532 65.8384 19.298 65.8569C19.3429 65.8754 19.3932 65.8756 19.4383 65.8576C19.4833 65.8395 19.5195 65.8047 19.5392 65.7603L19.7303 65.8387C19.63 66.0867 19.5739 66.3503 19.5645 66.6176L19.3027 66.6091V66.6031C19.3034 66.5541 19.285 66.5068 19.2514 66.4711C19.2179 66.4355 19.1718 66.4142 19.1229 66.4118C19.074 66.4094 19.026 66.4261 18.9892 66.4584C18.9524 66.4907 18.9295 66.536 18.9254 66.5848C18.9213 66.6336 18.9363 66.6821 18.9672 66.72C18.9982 66.758 19.0426 66.7825 19.0912 66.7883C19.1399 66.7941 19.1889 66.7808 19.2279 66.7513C19.2669 66.7217 19.293 66.6781 19.3005 66.6297L19.5634 66.6382C19.5634 66.6606 19.5623 66.681 19.5623 66.7025C19.5621 66.9593 19.6047 67.2143 19.6886 67.457L19.4752 67.5323C19.4576 67.4893 19.4247 67.4545 19.3829 67.4344C19.341 67.4144 19.2932 67.4107 19.2488 67.424C19.2043 67.4373 19.1664 67.4667 19.1424 67.5064C19.1184 67.5461 19.1101 67.5933 19.119 67.6388C19.1279 67.6843 19.1534 67.7249 19.1906 67.7527C19.2278 67.7804 19.274 67.7933 19.3201 67.7889C19.3663 67.7845 19.4092 67.763 19.4404 67.7287C19.4716 67.6944 19.489 67.6497 19.4891 67.6033C19.4891 67.5859 19.4867 67.5687 19.4819 67.552L19.6953 67.4767C19.8004 67.7699 19.9642 68.0386 20.1766 68.2664L20.0308 68.4028C19.9947 68.3695 19.9471 68.3516 19.898 68.3529C19.8489 68.3542 19.8022 68.3746 19.768 68.4098C19.7337 68.4449 19.7145 68.4921 19.7144 68.5412C19.7143 68.5903 19.7334 68.6375 19.7676 68.6727C19.8018 68.708 19.8484 68.7285 19.8975 68.7299C19.9466 68.7313 19.9943 68.7136 20.0305 68.6804C20.0667 68.6471 20.0885 68.6011 20.0912 68.5521C20.094 68.5031 20.0776 68.4549 20.0454 68.4178L20.1907 68.2814C20.2055 68.2971 20.2203 68.3126 20.2355 68.3278C20.4246 68.5164 20.645 68.6706 20.887 68.7835L20.8071 68.9569C20.7607 68.941 20.71 68.9437 20.6657 68.9646C20.6214 68.9855 20.587 69.0228 20.5697 69.0687C20.5525 69.1146 20.5539 69.1654 20.5736 69.2102C20.5932 69.2551 20.6296 69.2906 20.675 69.309C20.7204 69.3275 20.7712 69.3275 20.8166 69.3091C20.862 69.2907 20.8984 69.2553 20.9181 69.2105C20.9378 69.1656 20.9393 69.1149 20.9221 69.069C20.905 69.0231 20.8706 68.9857 20.8263 68.9647L20.9058 68.7923C21.1794 68.9169 21.4748 68.9864 21.7752 68.9967L21.7679 69.2196C21.7197 69.2223 21.6745 69.2437 21.6419 69.2792C21.6093 69.3147 21.5918 69.3615 21.5931 69.4097C21.5945 69.4579 21.6146 69.5037 21.6492 69.5373C21.6837 69.5709 21.73 69.5897 21.7783 69.5897C21.8265 69.5897 21.8728 69.5709 21.9074 69.5373C21.9419 69.5037 21.962 69.4579 21.9634 69.4097C21.9648 69.3615 21.9473 69.3147 21.9146 69.2792C21.882 69.2437 21.8368 69.2223 21.7887 69.2196L21.7958 68.9972C21.8182 68.9972 21.8386 68.9972 21.8601 68.9972C22.1274 68.9974 22.3926 68.9511 22.644 68.8604L22.7112 69.0429C22.6689 69.0613 22.6349 69.0947 22.6158 69.1367C22.5967 69.1787 22.5939 69.2263 22.6079 69.2702C22.6219 69.3142 22.6516 69.3514 22.6915 69.3747C22.7313 69.3979 22.7783 69.4056 22.8235 69.3962C22.8686 69.3868 22.9087 69.3609 22.9359 69.3237C22.9631 69.2865 22.9756 69.2404 22.9708 69.1946C22.9661 69.1487 22.9445 69.1062 22.9102 69.0753C22.8759 69.0445 22.8314 69.0274 22.7853 69.0274C22.7668 69.0274 22.7483 69.0302 22.7306 69.0357L22.6635 68.8532C22.9451 68.7478 23.2032 68.588 23.4231 68.3829L23.5575 68.5258C23.5252 68.5604 23.5076 68.6063 23.5085 68.6537C23.5095 68.701 23.5288 68.7462 23.5625 68.7795C23.5962 68.8128 23.6416 68.8317 23.689 68.8321C23.7364 68.8325 23.7821 68.8145 23.8163 68.7817C23.8506 68.749 23.8708 68.7042 23.8725 68.6568C23.8743 68.6095 23.8575 68.5633 23.8258 68.5281C23.794 68.4929 23.7498 68.4715 23.7025 68.4684C23.6552 68.4653 23.6086 68.4807 23.5725 68.5114L23.4381 68.3688C23.4538 68.354 23.469 68.339 23.4843 68.324C23.6281 68.1813 23.7526 68.0203 23.8545 67.8452L25.9274 68.9699V69.1714H25.9868V69.2704H26.1044V64.1319H25.9868V64.2309H25.9274V64.4325L23.8545 65.5572C23.7673 65.4059 23.6631 65.265 23.5441 65.1373L23.7389 64.9547C23.7704 64.99 23.8144 65.0116 23.8615 65.0149C23.9087 65.0183 23.9553 65.0031 23.9914 64.9727C24.0276 64.9422 24.0504 64.8989 24.0551 64.8518C24.0598 64.8048 24.046 64.7578 24.0166 64.7208C23.9872 64.6838 23.9445 64.6597 23.8976 64.6536C23.8508 64.6476 23.8034 64.66 23.7655 64.6884C23.7277 64.7167 23.7024 64.7587 23.695 64.8053C23.6876 64.852 23.6987 64.8997 23.7259 64.9384L23.53 65.122C23.5154 65.1066 23.5004 65.0911 23.4852 65.0759C23.2962 64.8864 23.0756 64.7314 22.8332 64.6179L22.9271 64.4148C22.9417 64.4185 22.9567 64.4204 22.9719 64.4206C23.0186 64.4207 23.0637 64.4034 23.0983 64.3719C23.1329 64.3405 23.1545 64.2973 23.1589 64.2507C23.1632 64.2041 23.1499 64.1577 23.1217 64.1204C23.0935 64.0831 23.0524 64.0577 23.0064 64.0492C22.9604 64.0408 22.9129 64.0498 22.8732 64.0746C22.8336 64.0993 22.8046 64.1381 22.7921 64.1831C22.7795 64.2281 22.7843 64.2763 22.8054 64.318C22.8265 64.3597 22.8625 64.392 22.9062 64.4085L22.8135 64.6101C22.5401 64.4853 22.2447 64.4158 21.9443 64.4054L21.9513 64.1866C21.9879 64.1855 22.0234 64.1738 22.0534 64.1527C22.0833 64.1316 22.1064 64.1021 22.1197 64.068C22.133 64.0339 22.136 63.9965 22.1282 63.9607C22.1204 63.9249 22.1023 63.8922 22.076 63.8667C22.0497 63.8411 22.0165 63.8239 21.9805 63.8172C21.9445 63.8104 21.9073 63.8144 21.8735 63.8287C21.8398 63.843 21.811 63.8669 21.7908 63.8974C21.7705 63.928 21.7598 63.9638 21.7598 64.0005L21.7607 63.9998ZM21.8601 64.4652C21.8809 64.4652 21.9018 64.4652 21.9224 64.4652L21.9016 65.1106C21.8877 65.1106 21.874 65.1106 21.8601 65.1106C21.6759 65.1105 21.493 65.1424 21.3197 65.2051L21.0969 64.6004C21.3415 64.5113 21.5998 64.4656 21.8601 64.4652ZM21.9004 65.1411L21.8539 66.5762C21.8447 66.5766 21.8356 66.578 21.8268 66.5805L21.3305 65.2327C21.5003 65.1713 21.6795 65.1399 21.8601 65.14C21.8738 65.14 21.887 65.1409 21.9004 65.1411ZM21.8198 68.2615L21.8664 66.8264C21.8756 66.8259 21.8847 66.8244 21.8935 66.8219L22.3898 68.1697C22.22 68.2312 22.0407 68.2626 21.8601 68.2624C21.8467 68.2624 21.8332 68.2617 21.8198 68.2615ZM21.7824 66.6031L20.801 65.5556C20.9491 65.4184 21.1223 65.3113 21.3112 65.2401L21.8073 66.5876C21.7984 66.5918 21.7901 66.597 21.7824 66.6031ZM21.7672 66.6172C21.7598 66.6253 21.7535 66.6344 21.7486 66.6443L20.4201 66.0987C20.5042 65.8991 20.6288 65.719 20.786 65.57L21.7672 66.6172ZM21.7405 66.6633C21.7383 66.6706 21.7366 66.6781 21.7356 66.6857L20.3005 66.6391C20.3073 66.4599 20.3452 66.2832 20.4125 66.1169L21.7405 66.6633ZM21.7352 66.7081C21.7355 66.7167 21.7368 66.7253 21.739 66.7337L20.3849 67.2102C20.328 67.0464 20.2989 66.8742 20.2989 66.7007C20.2989 66.6873 20.2989 66.6739 20.2989 66.6604L21.7352 66.7081ZM21.7459 66.7529C21.7501 66.7625 21.7555 66.7714 21.762 66.7796L20.7146 67.7605C20.5724 67.6071 20.4625 67.4266 20.3914 67.2299L21.7459 66.7529ZM21.7761 66.7946C21.783 66.8008 21.7905 66.8062 21.7985 66.8107L21.1965 68.1139C21.0211 68.0311 20.8625 67.9164 20.7289 67.7757L21.7761 66.7946ZM21.8182 66.819C21.8275 66.8224 21.8371 66.8246 21.8469 66.8257L21.8001 68.2608C21.5984 68.2532 21.4001 68.2062 21.2165 68.1224L21.8182 66.819ZM21.9141 66.8149C21.9213 66.8116 21.9281 66.8076 21.9345 66.8029L21.9504 66.8114L22.9194 67.8467C22.7713 67.9839 22.5981 68.0911 22.4093 68.1625L21.9141 66.8149ZM22.0082 66.8427L23.2061 67.4922C23.132 67.6173 23.041 67.7316 22.9356 67.8317L22.0082 66.8427ZM21.9647 66.7722C21.9676 66.7677 21.9703 66.763 21.9728 66.7583L23.3013 67.3038C23.2793 67.3562 23.2544 67.4073 23.2267 67.4568L21.9647 66.7722ZM21.9808 66.739C21.9832 66.7317 21.9849 66.7242 21.9858 66.7166L23.4209 66.7632C23.414 66.9425 23.3761 67.1192 23.3089 67.2855L21.9808 66.739ZM23.4213 66.7007C23.4213 66.7144 23.4213 66.7276 23.4202 66.741L21.9853 66.6945C21.9849 66.6859 21.9835 66.6774 21.9813 66.6692L23.3356 66.1917C23.3924 66.3554 23.4214 66.5274 23.4213 66.7007ZM21.9746 66.6494C21.9715 66.6426 21.9678 66.6361 21.9636 66.63L23.2256 65.9453C23.2662 66.018 23.3008 66.0939 23.3291 66.1722L21.9746 66.6494ZM22.053 66.5343L23.0052 65.6421C23.0811 65.7243 23.1479 65.8144 23.2045 65.9108L22.053 66.5343ZM21.9811 66.5733L21.9334 66.5991C21.9298 66.5966 21.926 66.5939 21.9219 66.5917L22.5237 65.288C22.6992 65.3709 22.8578 65.4858 22.9913 65.6266L21.9811 66.5733ZM21.9031 66.5831C21.8939 66.5797 21.8843 66.5774 21.8745 66.5762L21.9213 65.1411C22.123 65.1488 22.3212 65.1958 22.5049 65.2795L21.9031 66.5831ZM23.3291 67.3153L23.9257 67.5607C23.8945 67.6355 23.8593 67.7084 23.8202 67.7793L23.2529 67.4716C23.2811 67.421 23.3065 67.369 23.3291 67.3157V67.3153ZM23.3367 67.296C23.4052 67.1262 23.4438 66.9458 23.4509 66.7628L24.0946 66.7838C24.0854 67.0437 24.0309 67.2999 23.9335 67.541L23.3367 67.296ZM23.4513 66.7422C23.4513 66.7283 23.4525 66.7146 23.4525 66.7007C23.4525 66.5239 23.4229 66.3484 23.3649 66.1814L23.9734 65.967C24.0549 66.203 24.0964 66.451 24.0961 66.7007C24.0961 66.7215 24.0961 66.7424 24.0961 66.763L23.4513 66.7422ZM23.3584 66.1632C23.3294 66.0834 23.2942 66.0059 23.2529 65.9316L23.8202 65.6239C23.8777 65.728 23.9267 65.8366 23.9667 65.9487L23.3584 66.1632ZM21.0774 64.6065L21.3013 65.2112C21.1086 65.2838 20.9317 65.3932 20.7806 65.5332L20.3399 65.0629C20.5533 64.8635 20.8039 64.7081 21.0774 64.6056V64.6065ZM20.279 65.1216C20.2938 65.107 20.3088 65.0925 20.3238 65.0784L20.7656 65.5473C20.6052 65.6994 20.4781 65.8831 20.3923 66.0869L19.7954 65.8418C19.9078 65.5719 20.0721 65.3266 20.279 65.12V65.1216ZM19.7863 65.8627L20.3849 66.1061C20.3162 66.2758 20.2775 66.4562 20.2707 66.6391L19.6268 66.6183C19.6356 66.3585 19.6897 66.1023 19.7867 65.8611L19.7863 65.8627ZM19.6234 66.7007C19.6234 66.6799 19.6234 66.6593 19.6234 66.6385L20.2673 66.6595C20.2673 66.6732 20.2673 66.6868 20.2673 66.7007C20.2672 66.8775 20.2968 67.0531 20.3547 67.2201L19.7462 67.4346C19.6646 67.1986 19.6231 66.9505 19.6234 66.7007ZM19.7529 67.4541L20.3625 67.2402C20.4351 67.441 20.5473 67.6252 20.6924 67.7818L20.2221 68.2225C20.0153 68.0011 19.8559 67.7398 19.7536 67.4546L19.7529 67.4541ZM20.2783 68.2828C20.2635 68.268 20.2492 68.2532 20.2349 68.238L20.7052 67.797C20.8415 67.9407 21.0033 68.0578 21.1824 68.1423L20.913 68.728C20.6774 68.6174 20.4628 68.4666 20.279 68.2823L20.2783 68.2828ZM20.932 68.7367L21.2024 68.1506C21.3899 68.2356 21.5923 68.2833 21.7981 68.2908L21.7773 68.9345C21.4853 68.9247 21.1981 68.8575 20.932 68.7367ZM21.8601 68.9383C21.8393 68.9383 21.8187 68.9383 21.7979 68.9383L21.8187 68.2944C21.8326 68.2944 21.8462 68.2955 21.8601 68.2955C22.0445 68.2949 22.2274 68.2623 22.4005 68.199L22.6245 68.8037C22.3794 68.8925 22.1208 68.9378 21.8601 68.9374V68.9383ZM22.644 68.7979L22.42 68.1932C22.6127 68.1205 22.7895 68.011 22.9405 67.8709L23.3815 68.3412C23.1676 68.5401 22.9166 68.695 22.6429 68.797L22.644 68.7979ZM23.4424 68.2828C23.4276 68.2976 23.4128 68.3119 23.3976 68.3262L22.9566 67.8559C23.0643 67.753 23.1571 67.6355 23.2323 67.507L23.7998 67.8154C23.7013 67.9861 23.5808 68.1431 23.4413 68.2823L23.4424 68.2828ZM25.9283 64.4804V68.9226L23.8758 67.8091C23.9158 67.7364 23.952 67.6617 23.9841 67.5851L24.1745 67.6637C24.1595 67.7103 24.1633 67.7608 24.185 67.8046C24.2067 67.8484 24.2447 67.882 24.2908 67.8983C24.3369 67.9145 24.3875 67.9121 24.4319 67.8916C24.4762 67.8711 24.5109 67.8341 24.5284 67.7885C24.5459 67.7429 24.5449 67.6922 24.5256 67.6473C24.5064 67.6023 24.4703 67.5667 24.4252 67.548C24.3801 67.5292 24.3294 67.5288 24.2839 67.5468C24.2385 67.5648 24.2019 67.5999 24.1819 67.6445L23.9906 67.5652C24.0909 67.3172 24.1469 67.0536 24.1561 66.7863L24.3521 66.7925C24.3548 66.8411 24.3763 66.8866 24.412 66.9195C24.4478 66.9524 24.495 66.9701 24.5435 66.9687C24.5921 66.9674 24.6382 66.9472 24.6721 66.9123C24.706 66.8775 24.7249 66.8308 24.7249 66.7822C24.7249 66.7337 24.706 66.687 24.6721 66.6522C24.6382 66.6173 24.5921 66.5971 24.5435 66.5958C24.495 66.5944 24.4478 66.6121 24.412 66.645C24.3763 66.6779 24.3548 66.7234 24.3521 66.7719L24.1564 66.7654C24.1564 66.7442 24.1564 66.7227 24.1564 66.7012C24.1566 66.4444 24.1139 66.1894 24.0301 65.9467L24.2204 65.8795C24.2399 65.921 24.2741 65.9539 24.3164 65.9718C24.3586 65.9897 24.406 65.9914 24.4494 65.9765C24.4928 65.9617 24.5292 65.9313 24.5516 65.8913C24.5741 65.8512 24.5809 65.8043 24.5709 65.7595C24.5609 65.7147 24.5347 65.6752 24.4973 65.6486C24.46 65.6219 24.4141 65.61 24.3685 65.615C24.3229 65.6201 24.2808 65.6418 24.2502 65.676C24.2196 65.7102 24.2027 65.7545 24.2027 65.8004C24.2027 65.8208 24.2062 65.841 24.2128 65.8602L24.0233 65.9274C23.9823 65.8123 23.932 65.7007 23.8728 65.5937L25.9283 64.4804ZM23.8007 65.5874L23.2323 65.8945C23.1741 65.7962 23.1055 65.7044 23.0276 65.6208L23.4979 65.18C23.6136 65.3039 23.7149 65.4404 23.7998 65.587L23.8007 65.5874ZM23.4424 65.1205C23.4572 65.1353 23.4715 65.1503 23.4858 65.1653L23.0155 65.6062C22.8791 65.4626 22.7173 65.3454 22.5383 65.2607L22.8088 64.6748C23.0439 64.7854 23.2579 64.9361 23.4413 65.12L23.4424 65.1205ZM22.7896 64.6663L22.5179 65.2517C22.3304 65.1662 22.128 65.1183 21.9222 65.1106L21.9432 64.467C22.2353 64.4769 22.5225 64.5445 22.7884 64.6658L22.7896 64.6663Z" fill="#39C6FD"/>
<path d="M26.387 59.2429H19.9354L19.8156 58.8154H19.3961L19.1363 58.1027H18.4174L17.9581 57.3292L18.0578 56.9422H18.817L18.8967 56.6369H19.2564L19.3162 56.3722H19.7157L19.7755 56.1075H26.387V59.2429Z" fill="#39C6FD"/>
<path d="M14.6652 51.3595H14.5228V51.5387H14.0733V51.6097H13.9602V52.4614H13.8292V52.8735H13.9602V52.9452H13.7723V53.3573H13.9602V53.5281H14.0733V53.5991H14.5228V53.7783H14.6652V53.8679H26.387V51.27H14.6652V51.3595Z" fill="#39C6FD"/>
<path d="M19.4452 48.2626H19.1187L18.1332 45.9173H26.387V49.4568H19.6114L19.4452 48.2626Z" fill="#39C6FD"/>
<path d="M20.4745 72.0106L20.9448 69.0971H26.387V72.3221H21.0944L20.4745 72.0106Z" fill="#39C6FD"/>
<path d="M17.6154 61.9304H17.196L17.1917 62.0139H17.0347L16.9162 62.4939V63.3704L17.0585 64.2884L17.2242 64.6224H17.3494L17.3557 64.7059H17.7554L17.7393 64.6224H17.8701L17.8952 64.7059H26.387V61.9304H17.7754L17.761 62.0139H17.6154V61.9304Z" fill="#39C6FD"/>
<path d="M23.0948 47.1108L23.1286 47.2259H23.2471L23.162 47.7827L23.2133 48.2241H24.8285L25.0034 48.4593H22.199L22.0198 48.8848V49.2655H21.9302V49.8926H22.0422V50.4973H25.6704V51.2812H23.4012C23.3248 51.2812 23.2628 51.3504 23.2628 51.4359L23.2727 51.4379H22.9712C22.9518 51.4391 22.9337 51.4479 22.9208 51.4623C22.9079 51.4768 22.9012 51.4958 22.9022 51.5152C22.8753 52.0232 22.8753 52.5323 22.9022 53.0404C22.9012 53.0597 22.9079 53.0787 22.9208 53.0932C22.9337 53.1077 22.9518 53.1165 22.9712 53.1176H23.2727L23.2628 53.1196C23.2628 53.2052 23.3248 53.2744 23.4012 53.2744H24.6401V53.6215H22.3782L22.0646 54.1814V54.495H21.7511V56.0627H21.9974V57.6752H22.1318V58.1903H22.3782V58.795H25.2V60.0267H24.1665V60.3627H23.9907V60.5698L23.5203 60.6025C23.5186 60.6011 23.5164 60.6003 23.5141 60.6003C23.5118 60.6003 23.5096 60.6011 23.5078 60.6025L23.2731 60.6187C23.2717 60.6179 23.2701 60.6175 23.2685 60.6175C23.2669 60.6175 23.2653 60.6179 23.2639 60.6187L22.6621 60.6603V60.599H22.6357V60.7208H22.3558C22.3526 60.7102 22.3457 60.7011 22.3364 60.6951C22.327 60.6892 22.3158 60.6868 22.3049 60.6884C22.2939 60.69 22.2839 60.6955 22.2767 60.7038C22.2694 60.7122 22.2654 60.7229 22.2654 60.734C22.2654 60.7451 22.2694 60.7558 22.2767 60.7642C22.2839 60.7726 22.2939 60.7781 22.3049 60.7797C22.3158 60.7813 22.327 60.7789 22.3364 60.7729C22.3457 60.767 22.3526 60.7578 22.3558 60.7472H22.6341V60.8657H22.6606V60.8151L23.9893 60.9271V62.9382H24.1506V63.1398H24.3998V63.3861H25.9839V63.7669H20.3849V63.6997H20.2505V63.8564H19.9818V65.4466H20.2505V65.6033H20.3849V65.5137H20.8465V65.9516L21.1699 66.352H24.7969V66.7343H22.9605L22.7141 67.3166V68.8171L22.9381 69.4666H25.8047V69.7914H26.4094V47.0147H23.1286L23.0948 47.1108ZM23.9907 60.7351V60.7638L23.9757 60.7495L23.9907 60.7351ZM23.8046 60.885L23.6614 60.7434L23.8001 60.6079L23.9472 60.7495L23.8046 60.885ZM23.822 60.6014L23.9907 60.5896V60.7078L23.9615 60.7356L23.822 60.6014ZM23.7752 60.6046L23.6476 60.7293L23.5383 60.6209L23.7752 60.6046ZM23.6334 60.7434L23.5139 60.8603L23.3958 60.7425L23.5139 60.6249L23.6334 60.7434ZM23.2682 60.6431L23.3678 60.7425L23.2682 60.8422L23.1687 60.7425L23.2682 60.6431ZM23.0592 60.824L22.977 60.7418L23.0592 60.661L23.1407 60.7425L23.0592 60.824ZM23.4847 60.6252L23.381 60.7286L23.2915 60.6391L23.4847 60.6252ZM23.2404 60.642L23.1537 60.7286L23.0785 60.6532L23.2404 60.642ZM23.035 60.6563L22.962 60.728L22.8998 60.6657L23.035 60.6563ZM22.8418 60.6697L22.7522 60.73L22.6785 60.6809L22.8418 60.6697ZM22.6603 60.6921L22.7365 60.7416L22.6615 60.7927L22.6603 60.6921ZM22.6868 60.7992L22.754 60.7544L22.8411 60.8106L22.6868 60.7992ZM22.7708 60.7421L22.8762 60.6702L22.9479 60.7418L22.8762 60.8124L22.7708 60.7421ZM22.8998 60.8171L22.962 60.756L23.0346 60.8285L22.8998 60.8171ZM23.0789 60.8321L23.1542 60.7569L23.2438 60.8464L23.0789 60.8321ZM23.2883 60.8498L23.3815 60.7569L23.4917 60.8668L23.2883 60.8498ZM23.5318 60.8702L23.6469 60.7582L23.7813 60.8926L23.5318 60.8702ZM23.8229 60.8948L23.9607 60.7636L23.9907 60.7911V60.9082L23.8229 60.8948Z" fill="#39C6FD"/>
<path d="M22.5534 3.50938L26.7249 0.144371L0.143433 0.130859V60.9741L29.5717 88.1899L59.0064 60.9567V0.130859H32.6857L36.8642 3.50938H55.6132V59.4956L29.5825 83.5826L3.52388 59.4837V3.50938H22.5534Z" fill="#39C6FD"/>
<path fill-rule="evenodd" clip-rule="evenodd" d="M7.12665 8.21203H24.0843L29.6238 3.59426L35.1096 8.20986H52.3067V19.0307L35.802 31.9139V32.9315H33.1486V35.6925H35.802V39.4837H33.1416V75.7528L29.6638 79.3691L26.3971 75.7528V39.4837H23.3647V35.687H26.3884V32.9374L23.3647 32.9315V31.6158L7.12665 19.0316V8.21203ZM11.7468 12.8683H22.9412L29.5937 18.4597L36.2883 12.8648H47.6526V16.8149L35.5112 26.2511L29.646 23.6924L23.9986 26.2208L11.7468 16.7506V12.8683ZM29.5984 8.01411L26.0132 11.0159L29.5969 14.0288L33.1851 11.0195L29.5984 8.01411Z" fill="#39C6FD"/>
</svg>
